<?xml version="1.0" standalone="no"?>
<!DOCTYPE svg PUBLIC "-//W3C//DTD SVG 20010904//EN"
 "http://www.w3.org/TR/2001/REC-SVG-20010904/DTD/svg10.dtd">
<svg version="1.0" xmlns="http://www.w3.org/2000/svg"
 width="32.000000pt" height="32.000000pt" viewBox="0 0 32.000000 32.000000"
 preserveAspectRatio="xMidYMid meet">
<metadata>
Created by potrace 1.16, written by Peter Selinger 2001-2019
</metadata>
<g transform="translate(0.000000,32.000000) scale(0.100000,-0.100000)"
fill="#000000" stroke="none">
<path d="M0 311 c0 -6 6 -11 14 -11 16 0 20 -17 36 -138 12 -91 18 -112 30
-112 5 0 10 -10 12 -22 2 -18 11 -24 35 -26 28 -3 33 1 39 22 8 32 31 34 36 4
2 -18 11 -24 35 -26 28 -3 33 1 39 22 3 14 12 26 20 26 8 0 14 4 14 10 0 5
-47 11 -107 12 -74 2 -108 7 -111 16 -3 9 22 12 102 12 l106 0 7 28 c4 15 7
52 8 82 l0 55 -127 3 c-122 2 -127 3 -130 25 -2 16 -11 23 -30 25 -16 2 -28
-1 -28 -7z"/>
</g>
</svg>
